<svg xmlns="http://www.w3.org/2000/svg" height="30" viewBox="0 96 960 960" width="30" fill="white"><path d="M276.309 931.999q-29.596 0-50.144-20.548-20.548-20.549-20.548-50.145V312.078h-40.616v-58.384h185.076v-32.077h260.846v32.077h185.076v58.384h-40.616v549.228q0 28.254-21.219 49.473-21.219 21.22-49.473 21.22H276.309ZM697 312.078H264v549.228q0 5.385 3.654 8.847 3.655 3.462 8.655 3.462h408.382q4.616 0 8.462-3.846 3.847-3.847 3.847-8.463V312.078ZM371.232 788.154h58.383V395.539h-58.383v392.615Zm161.153 0h58.383V395.539h-58.383v392.615ZM264 312.078V873.615 312.078Z"/></svg>