<svg xmlns="http://www.w3.org/2000/svg" height="30" viewBox="0 96 960 960" width="30" fill="white"><path d="M477.433 916.5q-141.583 0-241.258-99.716Q136.5 717.068 136.5 576.165q0-140.903 99.675-241.284T477.5 234.5q90 0 159.145 36.473Q705.789 307.445 755.5 373.5v-139H825V520H538.5v-68.5H700q-39.032-56.033-93.537-90.267Q551.959 327 477.539 327q-104.789 0-177.164 72.309Q228 471.618 228 576.059t72.258 176.691Q372.517 825 477.359 825q77.27 0 143.206-44.5 65.935-44.5 94.123-118H809q-29.5 113-121.746 183.5-92.245 70.5-209.821 70.5Z"/></svg>